<?xml version="1.0" encoding="UTF-8" standalone="no"?>
<!-- Created with Inkscape (http://www.inkscape.org/) -->

<svg
   xmlns:dc="http://purl.org/dc/elements/1.1/"
   xmlns:cc="http://creativecommons.org/ns#"
   xmlns:rdf="http://www.w3.org/1999/02/22-rdf-syntax-ns#"
   xmlns:svg="http://www.w3.org/2000/svg"
   xmlns="http://www.w3.org/2000/svg"
   xmlns:sodipodi="http://sodipodi.sourceforge.net/DTD/sodipodi-0.dtd"
   xmlns:inkscape="http://www.inkscape.org/namespaces/inkscape"
   width="990.49701mm"
   height="490.26889mm"
   viewBox="0 0 990.49701 490.26889"
   version="1.1"
   id="svg8"
   inkscape:version="0.92.3 (unknown)"
   sodipodi:docname="[4801].svg">
  <defs
     id="defs2">
    <filter
       inkscape:collect="always"
       style="color-interpolation-filters:sRGB"
       id="filter4693"
       x="-0.050587963"
       width="1.1011759"
       y="-0.1055719"
       height="1.2111439">
      <feGaussianBlur
         inkscape:collect="always"
         stdDeviation="3.2827289"
         id="feGaussianBlur4695" />
    </filter>
  </defs>
  <sodipodi:namedview
     id="base"
     pagecolor="#ffffff"
     bordercolor="#666666"
     borderopacity="1.0"
     inkscape:pageopacity="0.0"
     inkscape:pageshadow="2"
     inkscape:zoom="0.24748737"
     inkscape:cx="2030.3201"
     inkscape:cy="667.97878"
     inkscape:document-units="mm"
     inkscape:current-layer="layer1"
     showgrid="false"
     inkscape:window-width="1366"
     inkscape:window-height="725"
     inkscape:window-x="0"
     inkscape:window-y="0"
     inkscape:window-maximized="1" />
  <metadata
     id="metadata5">
    <rdf:RDF>
      <cc:Work
         rdf:about="">
        <dc:format>image/svg+xml</dc:format>
        <dc:type
           rdf:resource="http://purl.org/dc/dcmitype/StillImage" />
        <dc:title></dc:title>
      </cc:Work>
    </rdf:RDF>
  </metadata>
  <g
     inkscape:label="Layer 1"
     inkscape:groupmode="layer"
     id="layer1"
     transform="translate(759.0392,461.59705)">
    <text
       id="text4528"
       y="-158.87531"
       x="-579.77649"
       style="font-style:normal;font-variant:normal;font-weight:normal;font-stretch:normal;font-size:71.29148865px;line-height:1.25;font-family:FreeMono;-inkscape-font-specification:FreeMono;letter-spacing:0px;word-spacing:0px;fill:#000000;fill-opacity:1;stroke:none;stroke-width:1.11392951"
       xml:space="preserve"><tspan
         style="font-style:normal;font-variant:normal;font-weight:normal;font-stretch:normal;font-family:NovaMono;-inkscape-font-specification:NovaMono;stroke-width:1.11392951"
         y="-158.87531"
         x="-579.77649"
         id="tspan4526"
         sodipodi:role="line">[4801]</tspan></text>
    <text
       id="text4532"
       y="-262.31158"
       x="-571.81946"
       style="font-style:normal;font-variant:normal;font-weight:normal;font-stretch:normal;font-size:71.29148865px;line-height:1.25;font-family:FreeMono;-inkscape-font-specification:FreeMono;letter-spacing:0px;word-spacing:0px;fill:#000000;fill-opacity:1;stroke:none;stroke-width:1.11392951"
       xml:space="preserve"><tspan
         style="font-style:normal;font-variant:normal;font-weight:normal;font-stretch:normal;font-family:'White Rabbit';-inkscape-font-specification:'White Rabbit';stroke-width:1.11392951"
         y="-262.31158"
         x="-571.81946"
         id="tspan4530"
         sodipodi:role="line">[4801]</tspan></text>
    <text
       id="text4540"
       y="-267.08612"
       x="-234.45792"
       style="font-style:normal;font-variant:normal;font-weight:normal;font-stretch:normal;font-size:71.29148865px;line-height:1.25;font-family:FreeMono;-inkscape-font-specification:FreeMono;letter-spacing:0px;word-spacing:0px;fill:#000000;fill-opacity:1;stroke:none;stroke-width:1.11392951"
       xml:space="preserve"><tspan
         style="font-style:normal;font-variant:normal;font-weight:bold;font-stretch:normal;font-family:'Grobe Deutschmeister';-inkscape-font-specification:'Grobe Deutschmeister Bold';stroke-width:1.11392951"
         y="-267.08612"
         x="-234.45792"
         id="tspan4538"
         sodipodi:role="line">[4801]</tspan></text>
    <text
       id="text4544"
       y="-278.22504"
       x="-21.219805"
       style="font-style:normal;font-variant:normal;font-weight:normal;font-stretch:normal;font-size:71.29148865px;line-height:1.25;font-family:mononoki;-inkscape-font-specification:mononoki;letter-spacing:0px;word-spacing:0px;fill:#000000;fill-opacity:1;stroke:none;stroke-width:1.11392951"
       xml:space="preserve"><tspan
         style="font-style:normal;font-variant:normal;font-weight:normal;font-stretch:normal;font-family:mononoki;-inkscape-font-specification:mononoki;stroke-width:1.11392951"
         y="-278.22504"
         x="-21.219805"
         id="tspan4542"
         sodipodi:role="line">[4801]</tspan></text>
    <text
       xml:space="preserve"
       style="font-style:normal;font-variant:normal;font-weight:normal;font-stretch:normal;font-size:71.29148865px;line-height:1.25;font-family:FreeMono;-inkscape-font-specification:FreeMono;letter-spacing:0px;word-spacing:0px;fill:#000000;fill-opacity:1;stroke:none;stroke-width:1.11392951"
       x="-253.55386"
       y="-127.04915"
       id="text4520"><tspan
         sodipodi:role="line"
         id="tspan4518"
         x="-253.55386"
         y="-127.04915"
         style="font-style:normal;font-variant:normal;font-weight:bold;font-stretch:normal;font-family:FreeMono;-inkscape-font-specification:'FreeMono Bold';stroke-width:1.11392951">[4801]</tspan></text>
    <text
       xml:space="preserve"
       style="font-style:normal;font-variant:normal;font-weight:normal;font-stretch:normal;font-size:16.93333244px;line-height:1.25;font-family:FreeMono;-inkscape-font-specification:FreeMono;letter-spacing:0px;word-spacing:0px;fill:#000000;fill-opacity:1;stroke:none;stroke-width:0.26458332"
       x="-304.68726"
       y="-450.28558"
       id="text4560"><tspan
         sodipodi:role="line"
         id="tspan4558"
         x="-304.68726"
         y="-450.28558"
         style="stroke-width:0.26458332">9E1B32/828a8f</tspan></text>
    <text
       xml:space="preserve"
       style="font-style:normal;font-variant:normal;font-weight:normal;font-stretch:normal;font-size:71.29148865px;line-height:1.25;font-family:FreeMono;-inkscape-font-specification:FreeMono;letter-spacing:0px;word-spacing:0px;fill:#9e1b32;fill-opacity:1;stroke:none;stroke-width:1.11392951"
       x="-573.95764"
       y="-264.44974"
       id="text4568"><tspan
         sodipodi:role="line"
         id="tspan4566"
         x="-573.95764"
         y="-264.44974"
         style="font-style:normal;font-variant:normal;font-weight:normal;font-stretch:normal;font-family:'White Rabbit';-inkscape-font-specification:'White Rabbit';fill:#9e1b32;fill-opacity:1;stroke-width:1.11392951">[4801]</tspan></text>
    <text
       xml:space="preserve"
       style="font-style:normal;font-variant:normal;font-weight:normal;font-stretch:normal;font-size:71.29148865px;line-height:1.25;font-family:FreeMono;-inkscape-font-specification:FreeMono;letter-spacing:0px;word-spacing:0px;fill:#9e1b32;fill-opacity:1;stroke:none;stroke-width:1.11392951"
       x="-236.59607"
       y="-269.22427"
       id="text4576"><tspan
         sodipodi:role="line"
         id="tspan4574"
         x="-236.59607"
         y="-269.22427"
         style="font-style:normal;font-variant:normal;font-weight:bold;font-stretch:normal;font-family:'Grobe Deutschmeister';-inkscape-font-specification:'Grobe Deutschmeister Bold';fill:#9e1b32;fill-opacity:1;stroke-width:1.11392951">[4801]</tspan></text>
    <text
       xml:space="preserve"
       style="font-style:normal;font-variant:normal;font-weight:normal;font-stretch:normal;font-size:71.29148865px;line-height:1.25;font-family:mononoki;-inkscape-font-specification:mononoki;letter-spacing:0px;word-spacing:0px;fill:#9e1b32;fill-opacity:1;stroke:none;stroke-width:1.11392951"
       x="-23.357962"
       y="-280.36319"
       id="text4580"><tspan
         sodipodi:role="line"
         id="tspan4578"
         x="-23.357962"
         y="-280.36319"
         style="font-style:normal;font-variant:normal;font-weight:normal;font-stretch:normal;font-family:mononoki;-inkscape-font-specification:mononoki;fill:#9e1b32;fill-opacity:1;stroke-width:1.11392951">[4801]</tspan></text>
    <path
       inkscape:connector-curvature="0"
       id="path4590"
       style="font-style:normal;font-variant:normal;font-weight:bold;font-stretch:normal;font-size:medium;line-height:1.25;font-family:'Grobe Deutschmeister';-inkscape-font-specification:'Grobe Deutschmeister Bold';letter-spacing:0px;word-spacing:0px;fill:#9e1b32;fill-opacity:1;stroke:none;stroke-width:1.11392951"
       d="m 87.62535,-126.5346 q -4.134906,0.28516 -8.483687,0.14258 -4.348781,-0.0713 -8.62627,-0.14258 -0.07129,-0.14258 -0.07129,-0.14258 h -0.07129 v -0.14259 q 0,-2.99424 0,-7.4856 0,-4.42008 0,-9.69565 0.07129,-5.34686 0.07129,-11.19276 0,-5.91719 0,-11.6918 0.07129,-5.84591 0.07129,-11.26406 0,-5.48944 0,-9.98081 0,-4.49136 0,-7.69948 0,-3.27941 -0.07129,-4.70524 4.063615,-0.49904 8.055939,-0.42775 3.992323,0 8.840144,0.14259 0.427749,0.99808 0.570332,1.71099 0.213875,0.64163 0.213875,1.35454 0,0.64162 -0.142583,1.42583 -0.142583,0.71292 -0.356458,1.85358 -3.3507,0.21387 -6.843983,0.21387 0.07129,1.42583 0.07129,2.92296 0,1.42582 0,2.85165 v 12.19085 q 0,0.92679 -0.07129,3.20812 0,2.21003 0,5.20427 0,2.92296 0,6.20236 0,3.20812 0,6.13107 0,2.92295 0,5.20428 0,2.21004 0,3.13683 v 14.187 q 1.568413,0 3.136826,0 1.639704,0.0713 3.421991,0.14259 0.427749,0.99808 0.570332,1.6397 0.213875,0.71292 0.213875,1.35454 0,0.71291 -0.142583,1.42583 -0.142583,0.7842 -0.356458,1.92487 z" />
    <path
       inkscape:connector-curvature="0"
       id="path4592"
       style="font-style:normal;font-variant:normal;font-weight:bold;font-stretch:normal;font-size:medium;line-height:1.25;font-family:'Grobe Deutschmeister';-inkscape-font-specification:'Grobe Deutschmeister Bold';letter-spacing:0px;word-spacing:0px;fill:#9e1b32;fill-opacity:1;stroke:none;stroke-width:1.11392951"
       d="m 103.61469,-193.61989 q 0.92679,-0.42775 1.92487,-0.49904 1.06938,-0.14259 2.13875,0 1.06937,0.0713 2.06745,0.21387 1.06937,0.14258 2.06746,0.14258 0.28516,8.48369 0.21387,16.8248 0,8.3411 -0.0713,16.7535 1.6397,-0.0713 3.20812,-0.0713 1.56841,-0.0713 3.20811,0.0713 0.21388,1.14066 0.0713,2.28132 -0.0713,1.06938 -0.35645,2.21004 -0.28517,1.06937 -0.71292,2.13874 -0.35646,1.06938 -0.71291,2.13875 -1.06938,0 -2.13875,0 -0.99808,0 -2.13874,-0.0713 -0.64163,2.92295 -0.42775,5.98848 0.28516,2.99424 -0.14258,6.05978 -2.42392,0.28516 -4.77653,0.78421 -2.28133,0.57033 -4.70524,0.71291 0,-1.85358 -0.42775,-3.56457 -0.42775,-1.78229 0.0713,-3.56458 0.28517,-1.42583 0.21387,-2.92295 -0.0713,-1.56841 0,-2.99424 -1.14066,-0.21388 -2.281323,-0.28517 -1.069373,-0.14258 -2.067453,0 -2.994243,-0.14258 -5.988485,-0.0713 -2.922951,0.0713 -5.917194,-0.14258 0,-1.56842 -0.07129,-3.06554 -0.07129,-1.49712 0.285165,-3.06553 4.348781,-9.12531 8.626271,-18.10804 4.34878,-8.98273 8.840139,-17.89416 z m -5.132983,21.67261 q -0.142583,0 -0.570332,0.0713 -0.356457,0.0713 -0.641623,0.0713 l 1.069372,0.0713 q -1.42583,2.92296 -2.780368,5.77462 -1.283247,2.85165 -2.637785,5.77461 2.281328,0 4.491364,0 2.210036,0 4.491365,-0.0713 0.35646,-4.91911 0.14258,-9.76693 -0.21387,-4.91911 0.28517,-9.83823 -1.14067,1.85358 -1.99616,3.92104 -0.855502,1.99616 -1.853583,3.99232 z" />
    <path
       inkscape:connector-curvature="0"
       id="path4594"
       style="font-style:normal;font-variant:normal;font-weight:bold;font-stretch:normal;font-size:medium;line-height:1.25;font-family:'Grobe Deutschmeister';-inkscape-font-specification:'Grobe Deutschmeister Bold';letter-spacing:0px;word-spacing:0px;fill:#9e1b32;fill-opacity:1;stroke:none;stroke-width:1.11392951"
       d="m 135.67916,-193.12085 q 0.64162,-0.35646 1.28324,0 0.71292,0.28516 1.28325,0.42775 2.99424,1.28324 5.8459,2.63778 2.92295,1.35454 5.8459,2.70908 0.21388,3.84974 0.0713,7.69948 -0.14259,3.77845 0,7.62819 -1.49713,1.14066 -3.20812,1.92487 -1.63971,0.78421 -3.20812,1.78229 1.63971,1.06937 3.27941,1.92487 1.711,0.7842 3.27941,1.85357 0.49904,0.64163 0.35646,1.49713 -0.0713,0.7842 0.0713,1.56841 -0.14259,2.56649 -0.14259,5.13299 0.0713,2.56649 -0.0713,5.13298 -0.0713,0.8555 0,1.78229 0.0713,0.92679 0.14259,1.85358 0.0713,0.92679 0,1.85358 -0.0713,0.92679 -0.35646,1.78229 -1.06937,0.7842 -2.35262,1.35453 -1.21196,0.57034 -2.35262,1.21196 -2.21004,1.06937 -4.27749,2.35262 -2.06745,1.28324 -4.42007,2.06745 -2.70908,-0.92679 -5.20428,-2.28133 -2.4952,-1.42583 -5.13299,-2.35262 -0.64162,-0.28516 -1.42583,-0.49904 -0.71291,-0.28516 -1.42583,-0.64162 -0.64162,-0.35646 -1.06937,-0.8555 -0.42775,-0.57033 -0.28517,-1.42583 0,-4.2062 -0.0713,-8.3411 -0.0713,-4.13491 0.21388,-8.34111 1.21195,-1.14066 2.70907,-1.6397 1.56842,-0.49904 2.92296,-1.21196 0.14258,0.21388 0.14258,0.57034 0.0713,0.35645 0.21387,0.57033 0,-0.35646 0,-0.99808 0.0713,-0.71292 0.0713,-1.14067 -0.71291,-0.35645 -1.49712,-0.7842 -0.71291,-0.42775 -1.49712,-0.78421 l 0.21388,-0.8555 q -0.35646,0.0713 -0.8555,0.28517 -0.49904,0.14258 -0.71292,0.21387 v -0.92679 q -0.28516,0 -0.71291,-0.0713 -0.42775,-0.0713 -0.71292,-0.0713 -0.14258,-4.56265 -0.21387,-9.12531 -0.0713,-4.56265 0.35646,-9.12531 3.27941,-1.56841 6.41623,-3.13683 3.20812,-1.6397 6.48753,-3.20811 z m -2.63779,8.48369 q -0.14258,2.63778 -0.21387,5.27557 -0.0713,2.63778 0.28516,5.27557 1.42583,0.7842 2.92295,1.49712 1.56842,0.71291 2.99425,1.49712 0.57033,-0.78421 0.64162,-1.711 0.0713,-0.92679 0,-1.85358 0,-0.99808 0,-1.92487 0.0713,-0.99808 0.64162,-1.78228 l 0.21388,-0.21388 q 0,-0.14258 -0.14259,-0.35646 -0.0713,-0.21387 -0.21387,-0.35645 0,-0.28517 -0.0713,-0.57034 0,-0.35645 0,-0.49904 0.0713,-0.28516 0.28516,-0.57033 0.21388,-0.35645 0.35646,-0.49904 l -0.21387,-0.8555 q -0.28517,0.0713 -0.57033,0.21388 -0.28517,0.0713 -0.49904,0.0713 -1.711,-0.35646 -3.27941,-1.21196 -1.49712,-0.85549 -3.13683,-1.42582 z m -0.35646,23.16973 q -0.0713,3.06553 -0.21387,6.13107 -0.0713,2.99424 0.42775,5.98848 1.71099,0.99808 3.49328,1.85358 1.78229,0.8555 3.56458,1.78229 0.14258,-2.99424 0.14258,-5.8459 0,-2.92296 -0.14258,-5.84591 0.14258,-0.71291 -0.21388,-1.21195 -0.28516,-0.49904 -0.78421,-0.8555 -0.49904,-0.35646 -1.14066,-0.57033 -0.57033,-0.28517 -1.06937,-0.64162 -0.42775,-0.21388 -0.99808,-0.57034 -0.49904,-0.35645 -1.06937,-0.57033 -0.49904,-0.21387 -1.06938,-0.14258 -0.49904,0 -0.92679,0.49904 z" />
    <path
       inkscape:connector-curvature="0"
       id="path4596"
       style="font-style:normal;font-variant:normal;font-weight:bold;font-stretch:normal;font-size:medium;line-height:1.25;font-family:'Grobe Deutschmeister';-inkscape-font-specification:'Grobe Deutschmeister Bold';letter-spacing:0px;word-spacing:0px;fill:#9e1b32;fill-opacity:1;stroke:none;stroke-width:1.11392951"
       d="m 163.7836,-189.98403 q 0.0713,-0.7842 0.49904,-1.28324 0.49904,-0.57034 1.14066,-0.92679 0.71292,-0.35646 1.42583,-0.57033 0.78421,-0.21388 1.42583,-0.42775 3.27941,1.21195 6.48753,2.56649 3.20812,1.35454 6.41623,2.63779 0.64163,0.14258 0.92679,0.57033 0.35646,0.35645 0.42775,0.85549 0.14258,0.49905 0.14258,1.06938 0,0.49904 0,0.92679 -0.0713,9.62435 -0.0713,19.10612 0.0713,9.41047 0.0713,18.96353 0,0.78421 -0.0713,1.711 -0.0713,0.92679 -0.99808,1.21195 -3.20812,1.49712 -6.34494,3.27941 -3.06554,1.711 -6.27365,3.13683 -3.20812,-0.64163 -6.20236,-1.92487 -2.92295,-1.35454 -5.98849,-2.35262 -0.35645,-0.21388 -0.7842,-0.35646 -0.42775,-0.14258 -0.8555,-0.28517 -0.35646,-0.21387 -0.64162,-0.42775 -0.21388,-0.28516 -0.14259,-0.7842 -0.14258,-9.55306 -0.14258,-18.89225 0,-9.41047 0,-18.96353 0.14258,-1.21196 0,-2.42391 -0.14258,-1.28325 0.21387,-2.4952 2.28133,-1.42583 4.63395,-2.5665 2.35262,-1.14066 4.70524,-2.42391 z m 1.35454,6.27365 q -0.0713,0.99809 -0.14259,1.99617 -0.0713,0.99808 -0.14258,1.99616 0.35646,4.42007 0.21388,8.84014 -0.14259,4.34878 0,8.76886 0.0713,3.20811 -0.21388,6.48752 -0.28516,3.27941 0.28517,6.48753 1.6397,0.99808 3.3507,1.6397 1.71099,0.57033 3.49328,1.21196 0.14258,-8.05594 0,-16.04059 -0.0713,-7.98465 0,-16.04058 -0.0713,-0.71292 0,-1.63971 0.14258,-0.92679 -0.64162,-1.35454 -1.49712,-0.64162 -3.06554,-1.28324 -1.49712,-0.71292 -3.13682,-1.06938 z" />
    <path
       inkscape:connector-curvature="0"
       id="path4598"
       style="font-style:normal;font-variant:normal;font-weight:bold;font-stretch:normal;font-size:medium;line-height:1.25;font-family:'Grobe Deutschmeister';-inkscape-font-specification:'Grobe Deutschmeister Bold';letter-spacing:0px;word-spacing:0px;fill:#9e1b32;fill-opacity:1;stroke:none;stroke-width:1.11392951"
       d="m 193.5244,-191.40986 q 0.49904,-0.57033 0.92679,-1.28324 0.42775,-0.71292 1.35454,-0.8555 1.78228,-0.0713 3.56457,0 1.78229,0 3.56458,0.14258 0.28516,1.35454 0.28516,2.78037 0.0713,1.35454 0,2.78037 0,1.35454 -0.14258,2.78037 -0.0713,1.35453 0,2.78036 -0.28517,0.0713 -0.57033,0.14259 -0.28517,0.0713 -0.42775,0.0713 0.14258,0.14258 0.49904,0.35646 0.42775,0.14258 0.57033,0.28516 -0.14258,10.40856 -0.14258,20.67453 0.0713,10.26598 -0.0713,20.67454 -2.49521,0.7842 -5.13299,1.21195 -2.56649,0.42775 -5.20428,0.42775 0.0713,-0.64162 -0.0713,-1.35454 -0.0713,-0.7842 -0.14258,-1.49712 0,-0.78421 0.21387,-1.35454 0.21387,-0.64162 0.92679,-1.06937 l -1.06937,0.35646 q 0.14258,-9.69565 0.21387,-19.2487 0.0713,-9.55306 -0.0713,-19.24871 -0.35646,0.35646 -0.71291,0.78421 -0.35646,0.42775 -0.71292,0.78421 -1.35454,1.56841 -2.85166,2.56649 -0.28517,-0.49904 -0.78421,-0.99808 -0.42774,-0.49904 -0.7842,-1.06937 -0.28517,-0.57034 -0.42775,-1.14067 -0.0713,-0.57033 0.35646,-1.14066 1.71099,-2.35262 3.49328,-4.56266 1.85358,-2.28132 3.3507,-4.77653 z" />
    <path
       inkscape:connector-curvature="0"
       id="path4600"
       style="font-style:normal;font-variant:normal;font-weight:bold;font-stretch:normal;font-size:medium;line-height:1.25;font-family:'Grobe Deutschmeister';-inkscape-font-specification:'Grobe Deutschmeister Bold';letter-spacing:0px;word-spacing:0px;fill:#9e1b32;fill-opacity:1;stroke:none;stroke-width:1.11392951"
       d="m 208.85987,-126.5346 q -0.21387,-1.14067 -0.35646,-1.92487 -0.14258,-0.71292 -0.14258,-1.42583 0,-0.64162 0.14258,-1.35454 0.21388,-0.64162 0.64163,-1.6397 1.78229,-0.0713 3.3507,-0.14259 1.6397,0 3.20812,0 v -14.187 q 0,-0.92679 0,-3.13683 0,-2.28133 0,-5.20428 0,-2.92295 0,-6.13107 0,-3.2794 0,-6.20236 0,-2.99424 -0.0713,-5.20427 0,-2.28133 0,-3.20812 v -12.19085 q 0,-1.42583 0,-2.85165 0,-1.49713 0.0713,-2.92296 -3.56458,0 -6.84399,-0.21387 -0.21387,-1.14066 -0.35646,-1.85358 -0.14258,-0.78421 -0.14258,-1.42583 0,-0.71291 0.14258,-1.35454 0.21388,-0.71291 0.64163,-1.71099 4.84782,-0.14259 8.84014,-0.14259 3.99233,-0.0713 8.05594,0.42775 -0.0713,1.42583 -0.0713,4.70524 0,3.20812 0,7.69948 0,4.49137 0,9.98081 0,5.41815 0,11.26406 0.0713,5.77461 0.0713,11.6918 0,5.8459 0,11.19276 0.0713,5.27557 0.0713,9.69565 0,4.49136 0,7.4856 v 0.14259 h -0.0713 q 0,0.0713 -0.0713,0.14258 -4.27749,0.0713 -8.62627,0.14258 -4.34878,0.14258 -8.48369,-0.14258 z" />
    <path
       d="m 92.970741,-30.31757 q -4.134906,0.28516 -8.483687,0.14258 -4.348781,-0.0713 -8.62627,-0.14258 -0.07129,-0.14258 -0.07129,-0.14258 h -0.07129 v -0.14259 q 0,-2.99424 0,-7.4856 0,-4.42008 0,-9.69565 0.07129,-5.34686 0.07129,-11.19276 0,-5.91719 0,-11.6918 0.07129,-5.84591 0.07129,-11.26406 0,-5.48944 0,-9.98081 0,-4.49136 0,-7.69948 0,-3.27941 -0.07129,-4.70524 4.063615,-0.49904 8.055939,-0.42775 3.992323,0 8.840144,0.14259 0.427749,0.99808 0.570332,1.71099 0.213875,0.64163 0.213875,1.35454 0,0.64162 -0.142583,1.42583 -0.142583,0.71292 -0.356458,1.85358 -3.3507,0.21387 -6.843983,0.21387 0.07129,1.42583 0.07129,2.92296 0,1.42582 0,2.85165 v 12.19085 q 0,0.92679 -0.07129,3.20812 0,2.21003 0,5.20427 0,2.92296 0,6.20236 0,3.20812 0,6.13107 0,2.92295 0,5.20428 0,2.21004 0,3.13683 v 14.187 q 1.568413,0 3.136826,0 1.639704,0.0713 3.421991,0.14259 0.427749,0.99808 0.570332,1.6397 0.213875,0.71292 0.213875,1.35454 0,0.71291 -0.142583,1.42583 -0.142583,0.7842 -0.356458,1.92487 z"
       style="font-style:normal;font-variant:normal;font-weight:bold;font-stretch:normal;font-size:medium;line-height:1.25;font-family:'Grobe Deutschmeister';-inkscape-font-specification:'Grobe Deutschmeister Bold';letter-spacing:0px;word-spacing:0px;fill:#828a8f;fill-opacity:1;stroke:none;stroke-width:1.11392951"
       id="path4609"
       inkscape:connector-curvature="0" />
    <path
       d="m 108.96008,-97.40286 q 0.92679,-0.42775 1.92487,-0.49904 1.06938,-0.14259 2.13875,0 1.06937,0.0713 2.06745,0.21387 1.06937,0.14258 2.06746,0.14258 0.28516,8.48369 0.21387,16.8248 0,8.3411 -0.0713,16.7535 1.6397,-0.0713 3.20812,-0.0713 1.56841,-0.0713 3.20811,0.0713 0.21388,1.14066 0.0713,2.28132 -0.0713,1.06938 -0.35645,2.21004 -0.28517,1.06937 -0.71292,2.13874 -0.35646,1.06938 -0.71291,2.13875 -1.06938,0 -2.13875,0 -0.99808,0 -2.13874,-0.0713 -0.64163,2.92295 -0.42775,5.98848 0.28516,2.99424 -0.14258,6.05978 -2.42392,0.28516 -4.77653,0.78421 -2.28133,0.57033 -4.70524,0.71291 0,-1.85358 -0.42775,-3.56457 -0.42775,-1.78229 0.0713,-3.56458 0.28517,-1.42583 0.21387,-2.92295 -0.0713,-1.56841 0,-2.99424 -1.14066,-0.21388 -2.28132,-0.28517 -1.06938,-0.14258 -2.06746,0 -2.99424,-0.14258 -5.98848,-0.0713 -2.922951,0.0713 -5.917194,-0.14258 0,-1.56842 -0.07129,-3.06554 -0.07129,-1.49712 0.285165,-3.06553 4.348781,-9.12531 8.626269,-18.10804 4.34878,-8.98273 8.84014,-17.89416 z m -5.13298,21.67261 q -0.14259,0 -0.57033,0.0713 -0.35646,0.0713 -0.64163,0.0713 l 1.06937,0.0713 q -1.42583,2.92296 -2.78036,5.77462 -1.28325,2.85165 -2.637788,5.77461 2.281328,0 4.491368,0 2.21003,0 4.49136,-0.0713 0.35646,-4.91911 0.14258,-9.76693 -0.21387,-4.91911 0.28517,-9.83823 -1.14067,1.85358 -1.99616,3.92104 -0.8555,1.99616 -1.85358,3.99232 z"
       style="font-style:normal;font-variant:normal;font-weight:bold;font-stretch:normal;font-size:medium;line-height:1.25;font-family:'Grobe Deutschmeister';-inkscape-font-specification:'Grobe Deutschmeister Bold';letter-spacing:0px;word-spacing:0px;fill:#9e1b32;fill-opacity:1;stroke:none;stroke-width:1.11392951"
       id="path4611"
       inkscape:connector-curvature="0" />
    <path
       d="m 141.02455,-96.90382 q 0.64162,-0.35646 1.28324,0 0.71292,0.28516 1.28325,0.42775 2.99424,1.28324 5.8459,2.63778 2.92295,1.35454 5.8459,2.70908 0.21388,3.84974 0.0713,7.69948 -0.14259,3.77845 0,7.62819 -1.49713,1.14066 -3.20812,1.92487 -1.63971,0.78421 -3.20812,1.78229 1.63971,1.06937 3.27941,1.92487 1.711,0.7842 3.27941,1.85357 0.49904,0.64163 0.35646,1.49713 -0.0713,0.7842 0.0713,1.56841 -0.14259,2.56649 -0.14259,5.13299 0.0713,2.56649 -0.0713,5.13298 -0.0713,0.8555 0,1.78229 0.0713,0.92679 0.14259,1.85358 0.0713,0.92679 0,1.85358 -0.0713,0.92679 -0.35646,1.78229 -1.06937,0.7842 -2.35262,1.35453 -1.21196,0.57034 -2.35262,1.21196 -2.21004,1.06937 -4.27749,2.35262 -2.06745,1.28324 -4.42007,2.06745 -2.70908,-0.92679 -5.20428,-2.28133 -2.4952,-1.42583 -5.13299,-2.35262 -0.64162,-0.28516 -1.42583,-0.49904 -0.71291,-0.28516 -1.42583,-0.64162 -0.64162,-0.35646 -1.06937,-0.8555 -0.42775,-0.57033 -0.28517,-1.42583 0,-4.2062 -0.0713,-8.3411 -0.0713,-4.13491 0.21388,-8.34111 1.21195,-1.14066 2.70907,-1.6397 1.56842,-0.49904 2.92296,-1.21196 0.14258,0.21388 0.14258,0.57034 0.0713,0.35645 0.21387,0.57033 0,-0.35646 0,-0.99808 0.0713,-0.71292 0.0713,-1.14067 -0.71291,-0.35645 -1.49712,-0.7842 -0.71291,-0.42775 -1.49712,-0.78421 l 0.21388,-0.8555 q -0.35646,0.0713 -0.8555,0.28517 -0.49904,0.14258 -0.71292,0.21387 v -0.92679 q -0.28516,0 -0.71291,-0.0713 -0.42775,-0.0713 -0.71292,-0.0713 -0.14258,-4.56265 -0.21387,-9.12531 -0.0713,-4.56265 0.35646,-9.12531 3.27941,-1.56841 6.41623,-3.13683 3.20812,-1.6397 6.48753,-3.20811 z m -2.63779,8.48369 q -0.14258,2.63778 -0.21387,5.27557 -0.0713,2.63778 0.28516,5.27557 1.42583,0.7842 2.92295,1.49712 1.56842,0.71291 2.99425,1.49712 0.57033,-0.78421 0.64162,-1.711 0.0713,-0.92679 0,-1.85358 0,-0.99808 0,-1.92487 0.0713,-0.99808 0.64162,-1.78228 l 0.21388,-0.21388 q 0,-0.14258 -0.14259,-0.35646 -0.0713,-0.21387 -0.21387,-0.35645 0,-0.28517 -0.0713,-0.57034 0,-0.35645 0,-0.49904 0.0713,-0.28516 0.28516,-0.57033 0.21388,-0.35645 0.35646,-0.49904 l -0.21387,-0.8555 q -0.28517,0.0713 -0.57033,0.21388 -0.28517,0.0713 -0.49904,0.0713 -1.711,-0.35646 -3.27941,-1.21196 -1.49712,-0.85549 -3.13683,-1.42582 z m -0.35646,23.16973 q -0.0713,3.06553 -0.21387,6.13107 -0.0713,2.99424 0.42775,5.98848 1.71099,0.99808 3.49328,1.85358 1.78229,0.8555 3.56458,1.78229 0.14258,-2.99424 0.14258,-5.8459 0,-2.92296 -0.14258,-5.84591 0.14258,-0.71291 -0.21388,-1.21195 -0.28516,-0.49904 -0.78421,-0.8555 -0.49904,-0.35646 -1.14066,-0.57033 -0.57033,-0.28517 -1.06937,-0.64162 -0.42775,-0.21388 -0.99808,-0.57034 -0.49904,-0.35645 -1.06937,-0.57033 -0.49904,-0.21387 -1.06938,-0.14258 -0.49904,0 -0.92679,0.49904 z"
       style="font-style:normal;font-variant:normal;font-weight:bold;font-stretch:normal;font-size:medium;line-height:1.25;font-family:'Grobe Deutschmeister';-inkscape-font-specification:'Grobe Deutschmeister Bold';letter-spacing:0px;word-spacing:0px;fill:#9e1b32;fill-opacity:1;stroke:none;stroke-width:1.11392951"
       id="path4613"
       inkscape:connector-curvature="0" />
    <path
       d="m 169.12899,-93.767 q 0.0713,-0.7842 0.49904,-1.28324 0.49904,-0.57034 1.14066,-0.92679 0.71292,-0.35646 1.42583,-0.57033 0.78421,-0.21388 1.42583,-0.42775 3.27941,1.21195 6.48753,2.56649 3.20812,1.35454 6.41623,2.63779 0.64163,0.14258 0.92679,0.57033 0.35646,0.35645 0.42775,0.85549 0.14258,0.49905 0.14258,1.06938 0,0.49904 0,0.92679 -0.0713,9.62435 -0.0713,19.10612 0.0713,9.41047 0.0713,18.96353 0,0.78421 -0.0713,1.711 -0.0713,0.92679 -0.99808,1.21195 -3.20812,1.49712 -6.34494,3.27941 -3.06554,1.711 -6.27365,3.13683 -3.20812,-0.64163 -6.20236,-1.92487 -2.92295,-1.35454 -5.98849,-2.35262 -0.35645,-0.21388 -0.7842,-0.35646 -0.42775,-0.14258 -0.8555,-0.28517 -0.35646,-0.21387 -0.64162,-0.42775 -0.21388,-0.28516 -0.14259,-0.7842 -0.14258,-9.55306 -0.14258,-18.89225 0,-9.41047 0,-18.96353 0.14258,-1.21196 0,-2.42391 -0.14258,-1.28325 0.21387,-2.4952 2.28133,-1.42583 4.63395,-2.5665 2.35262,-1.14066 4.70524,-2.42391 z m 1.35454,6.27365 q -0.0713,0.99809 -0.14259,1.99617 -0.0713,0.99808 -0.14258,1.99616 0.35646,4.42007 0.21388,8.84014 -0.14259,4.34878 0,8.76886 0.0713,3.20811 -0.21388,6.48752 -0.28516,3.27941 0.28517,6.48753 1.6397,0.99808 3.3507,1.6397 1.71099,0.57033 3.49328,1.21196 0.14258,-8.05594 0,-16.04059 -0.0713,-7.98465 0,-16.04058 -0.0713,-0.71292 0,-1.63971 0.14258,-0.92679 -0.64162,-1.35454 -1.49712,-0.64162 -3.06554,-1.28324 -1.49712,-0.71292 -3.13682,-1.06938 z"
       style="font-style:normal;font-variant:normal;font-weight:bold;font-stretch:normal;font-size:medium;line-height:1.25;font-family:'Grobe Deutschmeister';-inkscape-font-specification:'Grobe Deutschmeister Bold';letter-spacing:0px;word-spacing:0px;fill:#9e1b32;fill-opacity:1;stroke:none;stroke-width:1.11392951"
       id="path4615"
       inkscape:connector-curvature="0" />
    <path
       d="m 198.86979,-95.19283 q 0.49904,-0.57033 0.92679,-1.28324 0.42775,-0.71292 1.35454,-0.8555 1.78228,-0.0713 3.56457,0 1.78229,0 3.56458,0.14258 0.28516,1.35454 0.28516,2.78037 0.0713,1.35454 0,2.78037 0,1.35454 -0.14258,2.78037 -0.0713,1.35453 0,2.78036 -0.28517,0.0713 -0.57033,0.14259 -0.28517,0.0713 -0.42775,0.0713 0.14258,0.14258 0.49904,0.35646 0.42775,0.14258 0.57033,0.28516 -0.14258,10.40856 -0.14258,20.67453 0.0713,10.26598 -0.0713,20.67454 -2.49521,0.7842 -5.13299,1.21195 -2.56649,0.42775 -5.20428,0.42775 0.0713,-0.64162 -0.0713,-1.35454 -0.0713,-0.7842 -0.14258,-1.49712 0,-0.78421 0.21387,-1.35454 0.21387,-0.64162 0.92679,-1.06937 l -1.06937,0.35646 q 0.14258,-9.69565 0.21387,-19.2487 0.0713,-9.55306 -0.0713,-19.24871 -0.35646,0.35646 -0.71291,0.78421 -0.35646,0.42775 -0.71292,0.78421 -1.35454,1.56841 -2.85166,2.56649 -0.28517,-0.49904 -0.78421,-0.99808 -0.42774,-0.49904 -0.7842,-1.06937 -0.28517,-0.57034 -0.42775,-1.14067 -0.0713,-0.57033 0.35646,-1.14066 1.71099,-2.35262 3.49328,-4.56266 1.85358,-2.28132 3.3507,-4.77653 z"
       style="font-style:normal;font-variant:normal;font-weight:bold;font-stretch:normal;font-size:medium;line-height:1.25;font-family:'Grobe Deutschmeister';-inkscape-font-specification:'Grobe Deutschmeister Bold';letter-spacing:0px;word-spacing:0px;fill:#9e1b32;fill-opacity:1;stroke:none;stroke-width:1.11392951"
       id="path4617"
       inkscape:connector-curvature="0" />
    <path
       d="m 214.20526,-30.31757 q -0.21387,-1.14067 -0.35646,-1.92487 -0.14258,-0.71292 -0.14258,-1.42583 0,-0.64162 0.14258,-1.35454 0.21388,-0.64162 0.64163,-1.6397 1.78229,-0.0713 3.3507,-0.14259 1.6397,0 3.20812,0 v -14.187 q 0,-0.92679 0,-3.13683 0,-2.28133 0,-5.20428 0,-2.92295 0,-6.13107 0,-3.2794 0,-6.20236 0,-2.99424 -0.0713,-5.20427 0,-2.28133 0,-3.20812 v -12.19085 q 0,-1.42583 0,-2.85165 0,-1.49713 0.0713,-2.92296 -3.56458,0 -6.84399,-0.21387 -0.21387,-1.14066 -0.35646,-1.85358 -0.14258,-0.78421 -0.14258,-1.42583 0,-0.71291 0.14258,-1.35454 0.21388,-0.71291 0.64163,-1.71099 4.84782,-0.14259 8.84014,-0.14259 3.99233,-0.0713 8.05594,0.42775 -0.0713,1.42583 -0.0713,4.70524 0,3.20812 0,7.69948 0,4.49137 0,9.98081 0,5.41815 0,11.26406 0.0713,5.77461 0.0713,11.6918 0,5.8459 0,11.19276 0.0713,5.27557 0.0713,9.69565 0,4.49136 0,7.4856 v 0.14259 h -0.0713 q 0,0.0713 -0.0713,0.14258 -4.27749,0.0713 -8.62627,0.14258 -4.34878,0.14258 -8.48369,-0.14258 z"
       style="font-style:normal;font-variant:normal;font-weight:bold;font-stretch:normal;font-size:medium;line-height:1.25;font-family:'Grobe Deutschmeister';-inkscape-font-specification:'Grobe Deutschmeister Bold';letter-spacing:0px;word-spacing:0px;fill:#828a8f;fill-opacity:1;stroke:none;stroke-width:1.11392951"
       id="path4619"
       inkscape:connector-curvature="0" />
    <text
       id="text4623"
       y="16.219582"
       x="-226.97437"
       style="font-style:normal;font-variant:normal;font-weight:normal;font-stretch:normal;font-size:71.29148865px;line-height:1.25;font-family:FreeMono;-inkscape-font-specification:FreeMono;letter-spacing:0px;word-spacing:0px;fill:#828a8f;fill-opacity:1;stroke:none;stroke-width:1.11392951"
       xml:space="preserve"><tspan
         style="font-style:normal;font-variant:normal;font-weight:bold;font-stretch:normal;font-family:'Grobe Deutschmeister';-inkscape-font-specification:'Grobe Deutschmeister Bold';fill:#828a8f;fill-opacity:1;stroke-width:1.11392951"
         y="16.219582"
         x="-226.97437"
         id="tspan4621"
         sodipodi:role="line">[4801]</tspan></text>
    <text
       xml:space="preserve"
       style="font-style:normal;font-variant:normal;font-weight:normal;font-stretch:normal;font-size:71.29148865px;line-height:1.25;font-family:FreeMono;-inkscape-font-specification:FreeMono;letter-spacing:0px;word-spacing:0px;fill:#9e1b32;fill-opacity:1;stroke:none;stroke-width:1.11392951"
       x="-229.11252"
       y="14.081426"
       id="text4627"><tspan
         sodipodi:role="line"
         id="tspan4625"
         x="-229.11252"
         y="14.081426"
         style="font-style:normal;font-variant:normal;font-weight:bold;font-stretch:normal;font-family:'Grobe Deutschmeister';-inkscape-font-specification:'Grobe Deutschmeister Bold';fill:#9e1b32;fill-opacity:1;stroke-width:1.11392951">[4801]</tspan></text>
    <text
       xml:space="preserve"
       style="font-style:normal;font-variant:normal;font-weight:normal;font-stretch:normal;font-size:71.29148865px;line-height:1.25;font-family:FreeMono;-inkscape-font-specification:FreeMono;letter-spacing:0px;word-spacing:0px;fill:#828a8f;fill-opacity:1;stroke:none;stroke-width:1.11392951;filter:url(#filter4693)"
       x="-418.23032"
       y="4.1243424"
       id="text4631"><tspan
         sodipodi:role="line"
         id="tspan4629"
         x="-418.23032"
         y="4.1243424"
         style="font-style:normal;font-variant:normal;font-weight:bold;font-stretch:normal;font-family:'Grobe Deutschmeister';-inkscape-font-specification:'Grobe Deutschmeister Bold';fill:#828a8f;fill-opacity:1;stroke-width:1.11392951">[4801]</tspan></text>
    <text
       id="text4635"
       y="1.9861891"
       x="-420.36847"
       style="font-style:normal;font-variant:normal;font-weight:normal;font-stretch:normal;font-size:71.29148865px;line-height:1.25;font-family:FreeMono;-inkscape-font-specification:FreeMono;letter-spacing:0px;word-spacing:0px;fill:#9e1b32;fill-opacity:1;stroke:none;stroke-width:1.11392951"
       xml:space="preserve"><tspan
         style="font-style:normal;font-variant:normal;font-weight:bold;font-stretch:normal;font-family:'Grobe Deutschmeister';-inkscape-font-specification:'Grobe Deutschmeister Bold';fill:#9e1b32;fill-opacity:1;stroke-width:1.11392951"
         y="1.9861891"
         x="-420.36847"
         id="tspan4633"
         sodipodi:role="line">[4801]</tspan></text>
    <text
       id="text4718"
       y="-8.940073"
       x="-776.01337"
       style="font-style:normal;font-variant:normal;font-weight:normal;font-stretch:normal;font-size:71.29148865px;line-height:1.25;font-family:FreeMono;-inkscape-font-specification:FreeMono;letter-spacing:0px;word-spacing:0px;fill:#000000;fill-opacity:1;stroke:none;stroke-width:1.11392951"
       xml:space="preserve"><tspan
         style="font-style:normal;font-variant:normal;font-weight:normal;font-stretch:normal;font-family:'White Rabbit';-inkscape-font-specification:'White Rabbit';fill:#000000;fill-opacity:1;stroke-width:1.11392951"
         y="-8.940073"
         x="-776.01337"
         id="tspan4716"
         sodipodi:role="line">[4801]</tspan></text>
  </g>
</svg>
